<svg width="22" height="19" viewBox="0 0 22 19" fill="none" xmlns="http://www.w3.org/2000/svg">
<path fill-rule="evenodd" clip-rule="evenodd" d="M14.1045 1.02273C14.3503 0.528148 14.9504 0.326461 15.445 0.572245C17.2536 1.47103 18.5 3.33904 18.5 5.5C18.5 7.66096 17.2536 9.52897 15.445 10.4278C14.9504 10.6735 14.3503 10.4719 14.1045 9.97727C13.8587 9.48269 14.0604 8.88251 14.555 8.63673C15.7098 8.0628 16.5 6.87276 16.5 5.5C16.5 4.12724 15.7098 2.9372 14.555 2.36327C14.0604 2.11749 13.8587 1.51731 14.1045 1.02273Z" fill="black"/>
<path fill-rule="evenodd" clip-rule="evenodd" d="M16.0889 14.3541C16.3166 13.851 16.9091 13.6276 17.4123 13.8553C19.0902 14.6146 20.5741 15.8393 21.7863 17.3822C22.1275 17.8165 22.0521 18.4451 21.6178 18.7863C21.1835 19.1275 20.5549 19.0521 20.2137 18.6178C19.171 17.2907 17.9327 16.2861 16.5877 15.6775C16.0846 15.4498 15.8612 14.8573 16.0889 14.3541Z" fill="black"/>
<path fill-rule="evenodd" clip-rule="evenodd" d="M2.99999 5.5C2.99999 2.46243 5.46243 0 8.49999 0C11.5376 0 14 2.46243 14 5.5C14 8.53757 11.5376 11 8.49999 11C5.46243 11 2.99999 8.53757 2.99999 5.5Z" fill="black"/>
<path fill-rule="evenodd" clip-rule="evenodd" d="M0.213666 17.3822C2.30545 14.7198 5.21712 13 8.49999 13C11.7829 13 14.6945 14.7198 16.7863 17.3822C17.0228 17.6832 17.0667 18.0928 16.8994 18.4371C16.732 18.7814 16.3828 19 16 19H0.999993C0.617173 19 0.267949 18.7814 0.100601 18.4371C-0.0667459 18.0928 -0.0228439 17.6832 0.213666 17.3822Z" fill="black"/>
</svg>
